#!OML:ASF H:\Pregnant\Project 1\Capture day 1\Session 1\femalepreg.ASF
:FULLY-SPECIFIED
:DEGREES
682
root 2.65108 15.3604 32.0304 205.166 -85.9592 -185.743
lowerback -18.7788 -0.100724 -0.60645
upperback -4.85748 -0.346122 0.368115
thorax 5.2831 -0.305785 0.645556
lowerneck -23.0327 4.34004 5.37173
upperneck 23.1887 5.1355 -3.85213
head 11.6428 2.24021 -1.47265
rclavicle 2.00959e-015 -6.36111e-015
rhumerus -45.0995 -1.788 -78.4931
rradius 22.6677
rwrist -2.3914
rhand -16.8193 -23.029
rfingers 7.12502
rthumb 9.40969 -52.7989
lclavicle 2.00959e-015 -6.36111e-015
lhumerus -39.7337 -8.87022 82.3748
lradius 30.9224
lwrist 38.4198
lhand -36.8956 7.47575
lfingers 7.12502
lthumb -9.97396 37.2194
rfemur -36.8456 16.5241 19.3927
rtibia 41.3854
rfoot -19.2163 -12.2646
rtoes 1.38897
lfemur -26.8083 -14.3985 -22.8391
ltibia 19.2822
lfoot -7.79451 10.3208
ltoes -8.20873
683
root 2.63595 15.3658 32.0293 204.96 -85.7763 -185.684
lowerback -18.8901 -0.0032108 -0.529936
upperback -4.84788 -0.233323 0.364048
thorax 5.35025 -0.250743 0.623193
lowerneck -22.8228 4.37739 5.41398
upperneck 23.4123 5.19146 -3.87804
head 11.6936 2.26419 -1.48402
rclavicle 4.45091e-015 1.0138e-014
rhumerus -45.0117 -1.0374 -79.0624
rradius 22.9564
rwrist -2.59795
rhand -16.5527 -22.8119
rfingers 7.12502
rthumb 9.66698 -52.5701
lclavicle 4.45091e-015 1.0138e-014
lhumerus -39.9494 -8.40625 82.5193
lradius 31.2039
lwrist 39.2271
lhand -37.0723 7.52344
lfingers 7.12502
lthumb -10.1444 37.2589
rfemur -36.5078 16.7198 19.3908
rtibia 41.1588
rfoot -19.1787 -12.3482
rtoes 1.43132
lfemur -26.3462 -14.5485 -22.8708
ltibia 18.9113
lfoot -7.6916 10.6177
ltoes -8.09866
684
root 2.6212 15.3703 32.0276 204.99 -85.6043 -185.861
lowerback -18.9932 0.0785886 -0.479168
upperback -4.84435 -0.136652 0.358334
thorax 5.407 -0.203887 0.610331
lowerneck -22.6232 4.41831 5.45955
upperneck 23.654 5.24702 -3.89013
head 11.7531 2.28971 -1.49092
rclavicle -6.08933e-015 -9.93923e-016
rhumerus -44.8958 -0.380771 -79.5651
rradius 23.2257
rwrist -2.7177
rhand -16.348 -22.6078
rfingers 7.12502
rthumb 9.86443 -52.3567
lclavicle -6.08933e-015 -9.93923e-016
lhumerus -40.1886 -8.01725 82.7101
lradius 31.4963
lwrist 40.0499
lhand -37.1627 7.6018
lfingers 7.12502
lthumb -10.2316 37.333
rfemur -36.1894 16.9579 19.3628
rtibia 40.9639
rfoot -19.1499 -12.4824
rtoes 1.48988
lfemur -25.8868 -14.6845 -22.9237
ltibia 18.5368
lfoot -7.58704 10.8841
ltoes -8.02362
685
root 2.60694 15.374 32.0253 205.113 -85.4493 -186.127
lowerback -19.0913 0.146097 -0.442172
upperback -4.84653 -0.0565738 0.353072
thorax 5.45537 -0.165372 0.602177
lowerneck -22.4347 4.46259 5.50861
upperneck 23.9092 5.30191 -3.88924
head 11.8198 2.31661 -1.49369
rclavicle 1.79931e-014 -7.95139e-015
rhumerus -44.7477 0.17783 -79.9986
rradius 23.4763
rwrist -2.76457
rhand -16.1789 -22.4195
rfingers 7.12502
rthumb 10.0276 -52.1606
lclavicle 1.79931e-014 -7.95139e-015
lhumerus -40.4435 -7.707 82.9476
lradius 31.7906
lwrist 40.8666
lhand -37.1621 7.70385
lfingers 7.12502
lthumb -10.231 37.435
rfemur -35.8878 17.2239 19.3238
rtibia 40.7894
rfoot -19.1225 -12.6553
rtoes 1.53686
lfemur -25.4459 -14.8088 -22.9839
ltibia 18.18
lfoot -7.48592 11.1217
ltoes -7.97816
686
root 2.59318 15.3771 32.0225 205.112 -85.3184 -186.261
lowerback -19.1859 0.203039 -0.397658
upperback -4.85607 0.00744244 0.350599
thorax 5.49431 -0.134808 0.589143
lowerneck -22.2554 4.5105 5.56958
upperneck 24.1753 5.35471 -3.8795
head 11.8927 2.34455 -1.49549
rclavicle -6.58397e-015 7.95139e-015
rhumerus -44.56 0.611402 -80.3515
rradius 23.6922
rwrist -2.71146
rhand -16.0506 -22.2547
rfingers 7.12502
rthumb 10.1514 -51.9898
lclavicle -6.58397e-015 7.95139e-015
lhumerus -40.7122 -7.49659 83.2364
lradius 32.0808
lwrist 41.6739
lhand -37.0866 7.814
lfingers 7.12502
lthumb -10.1582 37.5488
rfemur -35.5977 17.5152 19.2938
rtibia 40.6199
rfoot -19.0893 -12.8636
rtoes 1.57201
lfemur -25.0419 -14.9273 -23.028
ltibia 17.865
lfoot -7.40391 11.3395
ltoes -7.92859
687
root 2.57995 15.3799 32.0196 204.855 -85.2145 -186.124
lowerback -19.2809 0.250918 -0.335105
upperback -4.87699 0.0542559 0.361151
thorax 5.52154 -0.112814 0.575821
lowerneck -22.0744 4.55896 5.62777
upperneck 24.4449 5.40754 -3.8642
head 11.9665 2.37286 -1.49488
rclavicle -1.08295e-014 6.75868e-015
rhumerus -44.3536 1.02514 -80.6775
rradius 23.9061
rwrist -2.68391
rhand -15.9696 -22.1392
rfingers 7.12502
rthumb 10.2295 -51.8705
lclavicle -1.08295e-014 6.75868e-015
lhumerus -40.9924 -7.36783 83.5833
lradius 32.3526
lwrist 42.4318
lhand -36.9363 7.92743
lfingers 7.12502
lthumb -10.0132 37.6692
rfemur -35.3191 17.811 19.2895
rtibia 40.4419
rfoot -19.0448 -13.0841
rtoes 1.5964
lfemur -24.6932 -15.0332 -23.0415
ltibia 17.6118
lfoot -7.34753 11.5364
ltoes -7.87515
688
root 2.56727 15.3825 32.0166 204.292 -85.1386 -185.663
lowerback -19.3802 0.28952 -0.250273
upperback -4.90896 0.0822544 0.390276
thorax 5.53951 -0.100191 0.565283
lowerneck -21.8928 4.6073 5.6735
upperneck 24.7134 5.46235 -3.84169
head 12.0396 2.40171 -1.48925
rclavicle 7.16324e-015 -9.54166e-015
rhumerus -44.1262 1.44154 -80.9816
rradius 24.1201
rwrist -2.71239
rhand -15.9045 -22.0378
rfingers 7.12502
rthumb 10.2922 -51.766
lclavicle 7.16324e-015 -9.54166e-015
lhumerus -41.2787 -7.32539 83.9953
lradius 32.6007
lwrist 43.1353
lhand -36.731 8.02605
lfingers 7.12502
lthumb -9.81509 37.7773
rfemur -35.0511 18.0986 19.318
rtibia 40.2449
rfoot -18.9846 -13.3052
rtoes 1.59407
lfemur -24.4129 -15.1205 -23.0181
ltibia 17.4353
lfoot -7.32769 11.7047
ltoes -7.81533
689
root 2.55509 15.3852 32.0136 203.455 -85.0864 -184.908
lowerback -19.4888 0.326157 -0.133958
upperback -4.95 0.100128 0.424298
thorax 5.55284 -0.0925932 0.539712
lowerneck -21.7103 4.65179 5.72158
upperneck 24.9741 5.50787 -3.81023
head 12.109 2.42789 -1.48226
rclavicle -5.39669e-015 -4.77083e-015
rhumerus -43.8751 1.81032 -81.2598
rradius 24.3265
rwrist -2.76557
rhand -15.8507 -21.9421
rfingers 7.12502
rthumb 10.3442 -51.6677
lclavicle -5.39669e-015 -4.77083e-015
lhumerus -41.5606 -7.39534 84.4652
lradius 32.8161
lwrist 43.7707
lhand -36.4916 8.09759
lfingers 7.12502
lthumb -9.58414 37.8596
rfemur -34.7939 18.3705 19.3767
rtibia 40.026
rfoot -18.9114 -13.514
rtoes 1.57878
lfemur -24.2028 -15.1855 -22.961
ltibia 17.3366
lfoot -7.34198 11.8442
ltoes -7.75225
690
root 2.54332 15.3879 32.0109 202.312 -85.0519 -183.821
lowerback -19.6132 0.363823 0.0191636
upperback -4.99762 0.110742 0.461462
thorax 5.56759 -0.0885919 0.494872
lowerneck -21.5264 4.69218 5.77589
upperneck 25.2216 5.54303 -3.77214
head 12.1725 2.45111 -1.47557
rclavicle 1.42224e-014 -4.96962e-015
rhumerus -43.5982 2.13996 -81.522
rradius 24.5272
rwrist -2.86378
rhand -15.8132 -21.8411
rfingers 7.12502
rthumb 10.3804 -51.5649
lclavicle 1.42224e-014 -4.96962e-015
lhumerus -41.8323 -7.58048 84.9913
lradius 32.9961
lwrist 44.3265
lhand -36.2327 8.14192
lfingers 7.12502
lthumb -9.3343 37.9153
rfemur -34.5516 18.6181 19.4682
rtibia 39.787
rfoot -18.8261 -13.6989
rtoes 1.55548
lfemur -24.0601 -15.2333 -22.8653
ltibia 17.3059
lfoot -7.38876 11.9596
ltoes -7.68781
691
root 2.5319 15.3908 32.0086 200.965 -85.0273 -182.512
lowerback -19.7522 0.402671 0.202664
upperback -5.0498 0.115864 0.496641
thorax 5.58525 -0.0873318 0.429345
lowerneck -21.3392 4.72837 5.83691
upperneck 25.4502 5.56747 -3.72705
head 12.2275 2.47145 -1.46918
rclavicle -6.85186e-015 8.54774e-015
rhumerus -43.2913 2.40414 -81.7556
rradius 24.7119
rwrist -2.96653
rhand -15.8043 -21.7342
rfingers 7.12502
rthumb 10.3889 -51.4576
lclavicle -6.85186e-015 8.54774e-015
lhumerus -42.0934 -7.8816 85.5698
lradius 33.142
lwrist 44.7888
lhand -35.9619 8.16545
lfingers 7.12502
lthumb -9.07309 37.9503
rfemur -34.3249 18.843 19.5796
rtibia 39.5349
rfoot -18.7348 -13.853
rtoes 1.55015
lfemur -23.9709 -15.2638 -22.7444
ltibia 17.3268
lfoot -7.45758 12.0567
ltoes -7.61987
